<svg width="22" height="22" viewBox="0 0 22 22" fill="none" xmlns="http://www.w3.org/2000/svg">
<path fill-rule="evenodd" clip-rule="evenodd" d="M1.024 10.9071L6.748 6.51407V10.1921H14.869V6.50207L20.642 10.9021L1.024 10.9071ZM13.476 0.0490723V9.37307H8.14V0.0490723H13.476ZM12.376 4.71407C12.376 5.02459 12.2839 5.32813 12.1114 5.58632C11.9389 5.8445 11.6937 6.04573 11.4068 6.16456C11.1199 6.28339 10.8043 6.31448 10.4997 6.25391C10.1952 6.19333 9.91541 6.0438 9.69584 5.82423C9.47627 5.60466 9.32674 5.32491 9.26617 5.02036C9.20559 4.71581 9.23668 4.40014 9.35551 4.11326C9.47434 3.82638 9.67557 3.58118 9.93375 3.40866C10.1919 3.23615 10.4955 3.14407 10.806 3.14407C11.0122 3.14394 11.2164 3.18446 11.407 3.26331C11.5975 3.34217 11.7706 3.45781 11.9164 3.60362C12.0623 3.74944 12.1779 3.92256 12.2568 4.1131C12.3356 4.30364 12.3761 4.50786 12.376 4.71407ZM12.663 1.76407V7.64907C12.4542 7.6496 12.254 7.73279 12.1064 7.88046C11.9587 8.02812 11.8755 8.22824 11.875 8.43707H9.767C9.76647 8.22824 9.68328 8.02812 9.53562 7.88046C9.38795 7.73279 9.18783 7.6496 8.979 7.64907V1.76307C9.18783 1.76254 9.38795 1.67935 9.53562 1.53169C9.68328 1.38402 9.76647 1.1839 9.767 0.975072H11.876C11.8763 1.18398 11.9594 1.38426 12.1071 1.53198C12.2548 1.6797 12.4551 1.76281 12.664 1.76307L12.663 1.76407ZM0.557999 20.0931H2.073L2.293 19.4701H2.935V13.4271H1.623V11.9791H19.993V13.4271H18.681V19.4701H19.323L19.543 20.0931H21.058V21.2001H0.557999V20.0931ZM7.378 19.4721V13.4271H5.352V19.4701H7.378V19.4721ZM11.821 19.4721V13.4271H9.796V19.4701C10.4707 19.4701 11.1453 19.4701 11.82 19.4701L11.821 19.4721ZM16.264 19.4721V13.4271H14.239V19.4701C14.9137 19.4701 15.5883 19.4701 16.263 19.4701L16.264 19.4721Z" fill="white"/>
</svg>
