<svg width="20" height="21" viewBox="0 0 20 21" fill="none" xmlns="http://www.w3.org/2000/svg">
<path fill-rule="evenodd" clip-rule="evenodd" d="M14.382 2.637L7.308 6.932H9.32L14.543 3.762L15.31 3.296L17.521 6.932H18.808C19.0776 6.93297 19.3358 7.04086 19.526 7.232C19.6207 7.32572 19.6959 7.43722 19.7474 7.56009C19.7989 7.68296 19.8256 7.81478 19.826 7.948V19.874C19.8256 20.0071 19.7988 20.1387 19.7473 20.2614C19.6959 20.3841 19.6206 20.4955 19.526 20.589C19.4321 20.684 19.3203 20.7594 19.197 20.8108C19.0738 20.8623 18.9416 20.8889 18.808 20.889H1.017C0.883435 20.8889 0.751216 20.8623 0.627978 20.8108C0.50474 20.7594 0.392927 20.684 0.298997 20.589C0.20415 20.496 0.128772 20.3851 0.077264 20.2627C0.0257558 20.1403 -0.000850776 20.0088 -0.00100264 19.876V7.95C-0.00139767 7.81637 0.0245977 7.68398 0.0754919 7.56042C0.126386 7.43686 0.201177 7.32457 0.295574 7.22999C0.389971 7.13541 0.502115 7.0604 0.625572 7.00926C0.749029 6.95812 0.881369 6.93187 1.015 6.932H1.437L12.421 0.261998C12.5211 0.201024 12.6322 0.160411 12.748 0.142489C12.8638 0.124568 12.982 0.129691 13.0958 0.157564C13.2096 0.185438 13.3168 0.235513 13.4112 0.304917C13.5056 0.37432 13.5854 0.461685 13.646 0.561998L14.766 2.405L14.383 2.638L14.382 2.637ZM0.994997 7.838C0.955915 7.87993 0.923838 7.92787 0.899997 7.98V9.448H18.921V7.948C18.9214 7.93334 18.9187 7.91876 18.9132 7.90517C18.9077 7.89158 18.8995 7.87927 18.889 7.869C18.8676 7.84739 18.8384 7.83517 18.808 7.835H1.015C1.00836 7.83418 1.00164 7.83418 0.994997 7.835V7.838ZM2.695 14.438H5.917V15.638H2.7V14.438H2.695ZM2.695 17.289H11.695V18.375H2.695V17.293V17.289ZM14.563 14.442H17.781V15.642H14.563V14.442ZM10.608 14.442H13.826V15.642H10.608V14.442ZM6.653 14.442H9.872V15.642H6.654L6.653 14.442ZM18.92 12.825H0.899997V19.874C0.899673 19.8891 0.902533 19.9042 0.90839 19.9181C0.914247 19.9321 0.922971 19.9446 0.933997 19.955C0.95482 19.9763 0.983212 19.9885 1.013 19.989H18.808C18.8383 19.9882 18.8672 19.9761 18.889 19.955C18.8997 19.9444 18.9083 19.9318 18.9141 19.9179C18.92 19.904 18.923 19.8891 18.923 19.874V12.825H18.92Z" fill="white"/>
</svg>
