<svg xmlns="http://www.w3.org/2000/svg" width="365" height="220" viewBox="14 86 365 220"><g data-name="Rectangle 35"><path d="M15 0h335a15 15 0 0 1 15 15v190a15 15 0 0 1-15 15H15a15 15 0 0 1-15-15V15A15 15 0 0 1 15 0z" fill-rule="evenodd" fill="url(&quot;#a&quot;)" transform="translate(14 86)"/><path d="M15 0h335a15 15 0 0 1 15 15v190a15 15 0 0 1-15 15H15a15 15 0 0 1-15-15V15A15 15 0 0 1 15 0z" stroke-linejoin="round" stroke-linecap="round" stroke="#fff" fill="transparent" transform="matrix(.99726 0 0 .99545 14.5 86.5)"/></g><defs><linearGradient x1="1" y1=".517" x2="0" y2=".525" id="a"><stop stop-color="#e133d8fc" offset="0"/><stop stop-color="#81007adb" offset=".55"/><stop stop-color="#81007b" offset="1"/></linearGradient></defs></svg>