<svg xmlns="http://www.w3.org/2000/svg" width="14.985" height="21.463" viewBox="40.678 343.584 14.985 21.463"><g data-name="hand-exchange-money-icon"><path d="m51.24 359.243.68-3.457.69 1.04c1.484-.596 2.32-1.58 2.443-3.094 1.22 2.132.479 4.045-1.067 5.165l.704 1.06-3.45-.714Zm-8.86-2.062-.609 3.447a.255.255 0 0 1-.057.124c-.217.28-.353.52-.393.714-.028.143 0 .259.096.35l2.377 2.377c.15.145.327.235.536.274.229.044.496.02.804-.065l.017-.002c.117-.031.27-.07.416-.104.637-.156 1.193-.292 1.708-.758l.664-.692c.007-.012.017-.021.026-.032.009-.008.073-.073.163-.157.454-.443 1.014-.99.672-1.47l-.266-.266c-.129.124-.265.246-.396.363-.119.105-.232.203-.334.306a.28.28 0 0 1-.396 0 .28.28 0 0 1 0-.396c.103-.103.229-.215.36-.332.449-.397.964-.85.686-1.246l-.262-.262c-.014-.014-.026-.031-.038-.047-.15.156-.318.304-.48.446-.12.104-.233.202-.334.305a.28.28 0 0 1-.397 0 .28.28 0 0 1 0-.396c.103-.103.23-.215.36-.332.449-.397.964-.849.688-1.245l-.262-.262a.283.283 0 0 1-.045-.06l-.77.77a.28.28 0 0 1-.397 0 .28.28 0 0 1 0-.396l1.445-1.445c.345-.345.424-.705.333-.978a.64.64 0 0 0-.278-.353h-.001c-.021.01-.037-.012-.058-.031a.527.527 0 0 0-.079-.031c-.24-.079-.55-.023-.868.242a2.525 2.525 0 0 0-.117.105l-2.995 3a.28.28 0 0 1-.397 0 .282.282 0 0 1-.026-.368l-1.097-1.097Zm1.898.292.096-.096 1.979-1.979a1.969 1.969 0 0 1-.564-.396 1.924 1.924 0 0 1 0-2.723 1.924 1.924 0 0 1 2.723 0c.753.752.753 1.97 0 2.723l-.02.019.044.042c.061.06.116.129.163.2l2.454-2.453a.968.968 0 0 1 0-1.368l-1.829-1.83a.968.968 0 0 1-1.368 0l-5.086 5.086a.968.968 0 0 1 0 1.367l1.408 1.408Zm4.314-.651a2.189 2.189 0 0 1-.232.272l-.288.288-.002-.007c.02.013.04.027.06.046l.273.274a.394.394 0 0 1 .04.05c.308.423.26.8.051 1.143a.278.278 0 0 1 .103.065l.275.274a.394.394 0 0 1 .04.05c.332.456.248.855 0 1.218.012.007.02.017.033.028l.274.274a.394.394 0 0 1 .04.05c.638.872-.122 1.611-.732 2.209l-.157.157-.68.714-.02.021c-.624.566-1.242.716-1.955.89-.118.029-.24.06-.408.104l-.013.002c-.386.104-.737.13-1.053.073-.32-.058-.597-.2-.828-.428l-2.374-2.374c-.24-.232-.32-.518-.255-.857.053-.273.21-.573.458-.898l.634-3.595v-.014l.025-.146-1.223-1.223 8.07-8.07 4.627 4.627-4.783 4.783Zm-1.652-12.524-.68 3.457-.69-1.04c-1.484.596-2.32 1.58-2.443 3.092-1.221-2.133-.479-4.045 1.067-5.165l-.704-1.058 3.45.714Z" fill="#fff" fill-rule="evenodd" data-name="Path 48"/></g></svg>