<svg xmlns="http://www.w3.org/2000/svg" width="36.235" height="51.902" viewBox="30.27 11.176 36.235 51.902"><g data-name="hand-exchange-money-icon"><path d="m55.811 49.042 1.643-8.359 1.669 2.513c3.59-1.44 5.609-3.818 5.909-7.48 2.948 5.157 1.157 9.782-2.581 12.49l1.702 2.564-8.342-1.728Zm-21.427-4.984-1.47 8.334a.617.617 0 0 1-.14.3c-.523.675-.852 1.258-.95 1.727-.067.346 0 .625.233.845l5.748 5.748c.364.35.79.57 1.297.663.553.106 1.2.047 1.943-.156.013 0 .03-.004.042-.004.283-.076.65-.17 1.005-.254 1.542-.376 2.885-.705 4.131-1.833l1.605-1.672c.017-.03.043-.051.064-.076.02-.021.177-.178.392-.38 1.099-1.073 2.454-2.395 1.627-3.557l-.642-.642c-.313.3-.642.596-.96.879-.286.253-.56.49-.806.739a.676.676 0 0 1-.959 0 .676.676 0 0 1 0-.959c.25-.25.554-.52.87-.802 1.086-.96 2.332-2.053 1.66-3.012l-.633-.634c-.034-.033-.064-.076-.093-.114-.363.376-.769.735-1.162 1.077-.287.254-.561.49-.806.74a.676.676 0 0 1-.96 0 .676.676 0 0 1 0-.96c.25-.248.554-.519.87-.802 1.086-.958 2.332-2.052 1.665-3.011l-.634-.634a.684.684 0 0 1-.11-.143l-1.862 1.862a.676.676 0 0 1-.959 0 .676.676 0 0 1 0-.959l3.493-3.493c.837-.836 1.027-1.706.807-2.365a1.65 1.65 0 0 0-.38-.625 1.546 1.546 0 0 0-.292-.228h-.004c-.05.025-.089-.03-.14-.076a1.274 1.274 0 0 0-.19-.076c-.582-.19-1.33-.055-2.099.587a.066.066 0 0 1-.033.025 6.106 6.106 0 0 0-.25.228l-7.243 7.253a.676.676 0 0 1-.959 0 .682.682 0 0 1-.063-.887l-2.653-2.653Zm4.591.705.233-.232 4.785-4.785a4.761 4.761 0 0 1-1.364-.96 4.652 4.652 0 0 1 0-6.584 4.652 4.652 0 0 1 6.585 0 4.652 4.652 0 0 1 0 6.585l-.047.046c.038.034.072.068.106.102.148.148.279.312.393.485l5.934-5.934a2.34 2.34 0 0 1 0-3.307l-4.422-4.427a2.34 2.34 0 0 1-3.307 0l-12.3 12.3a2.34 2.34 0 0 1 0 3.307l3.404 3.404Zm10.433-1.575c-.16.224-.346.444-.562.659l-.697.697-.004-.017c.05.03.097.063.144.11l.663.663c.034.034.067.08.097.122.743 1.023.63 1.935.122 2.763a.672.672 0 0 1 .25.156l.663.663c.034.034.067.08.097.123.802 1.102.6 2.065 0 2.944.03.016.05.042.08.067l.663.663c.034.034.068.08.097.123 1.542 2.107-.295 3.894-1.77 5.339l-.38.38-1.642 1.727-.051.05c-1.508 1.37-3.003 1.733-4.727 2.155-.287.068-.582.144-.988.25-.013 0-.017.003-.03.003-.933.254-1.782.317-2.546.178a3.744 3.744 0 0 1-2.002-1.035l-5.74-5.74c-.583-.562-.778-1.255-.617-2.074.127-.659.507-1.385 1.107-2.171l1.533-8.692v-.034l.059-.355-2.957-2.957 19.514-19.513 11.189 11.188-11.565 11.565Zm-3.996-30.284-1.643 8.359-1.668-2.514c-3.59 1.44-5.61 3.819-5.91 7.476-2.951-5.157-1.156-9.782 2.582-12.49l-1.703-2.559 8.342 1.728Z" fill="#009ef7" fill-rule="evenodd" data-name="Path 48"/></g></svg>