<svg width="31" height="29" viewBox="0 0 31 29" fill="none" xmlns="http://www.w3.org/2000/svg">
<path d="M4.32294 21.854C4.37795 22.2447 4.47864 22.6277 4.62294 22.995C4.77366 23.3863 5.00344 23.7424 5.29794 24.041C6.24994 24.986 7.48794 24.984 8.84194 24.984H9.48494C9.90956 24.5144 10.4354 24.1474 11.0227 23.911C11.61 23.6745 12.2434 23.5746 12.8749 23.619C14.9049 23.619 16.5569 24.619 16.5569 25.853C16.5569 27.087 14.9099 28.087 12.8749 28.087C12.254 28.1271 11.6319 28.03 11.0527 27.8026C10.4736 27.5751 9.9516 27.2229 9.52394 26.771H8.84394C7.10594 26.771 5.51794 26.771 4.04394 25.313C3.577 24.8431 3.21116 24.2826 2.96894 23.666C2.74167 23.0843 2.59302 22.475 2.52694 21.854C2.00281 21.8407 1.50455 21.6234 1.13813 21.2484C0.771721 20.8734 0.566075 20.3703 0.564941 19.846L0.564941 12.605C0.566262 12.0728 0.778242 11.5629 1.15453 11.1866C1.53082 10.8103 2.04079 10.5983 2.57294 10.597H2.71494C2.92518 8.827 3.57023 7.13657 4.59254 5.67647C5.61486 4.21637 6.98266 3.032 8.57394 2.22898C10.448 1.20309 12.5174 0.58427 14.6469 0.412981C16.8111 0.223567 18.99 0.531409 21.0169 1.31298C22.9707 2.09414 24.6969 3.35349 26.0372 4.97546C27.3775 6.59743 28.289 8.53006 28.6879 10.596H28.7199C29.2521 10.5973 29.7621 10.8093 30.1384 11.1856C30.5146 11.5619 30.7266 12.0718 30.7279 12.604V19.845C30.7266 20.3771 30.5146 20.8871 30.1384 21.2634C29.7621 21.6397 29.2521 21.8517 28.7199 21.853H26.7119V10.774C26.3504 9.0731 25.5759 7.48728 24.4569 6.15633C23.3378 4.82539 21.9085 3.79018 20.2949 3.14198C18.5468 2.46916 16.6678 2.20543 14.8019 2.37098C12.9527 2.51672 11.1552 3.05139 9.52694 3.93998C8.15458 4.61982 6.98226 5.64435 6.12474 6.91329C5.26721 8.18223 4.75386 9.65208 4.63494 11.179C4.63086 11.2751 4.61266 11.3701 4.58094 11.461V21.861L4.32294 21.854Z" fill="#9CA4B4"/>
</svg>
