<svg xmlns="http://www.w3.org/2000/svg" width="30.163" height="27.728" viewBox="17.695 0 30.163 27.728"><path d="M21.453 21.495c.055.391.157.774.302 1.142.15.39.38.747.675 1.045.952.945 2.19.943 3.544.943h.643c.558-.803 1.866-1.365 3.388-1.365 2.03 0 3.682 1 3.682 2.234 0 1.235-1.647 2.234-3.682 2.234-1.49 0-2.774-.54-3.35-1.316h-.68c-1.739 0-3.327 0-4.8-1.458a4.855 4.855 0 0 1-1.075-1.647 7.02 7.02 0 0 1-.441-1.812 2.013 2.013 0 0 1-1.964-2.008v-7.24a2.013 2.013 0 0 1 2.008-2.009h.142c.363-3.718 2.7-6.627 5.86-8.367A15.182 15.182 0 0 1 31.776.054c2.164-.189 4.343.12 6.37.901 3.547 1.402 6.52 4.379 7.67 9.283h.032c1.108.003 2.006.9 2.008 2.008v7.241a2.013 2.013 0 0 1-2.008 2.008h-2.007v-11.08c-1.029-4.028-3.493-6.483-6.417-7.631a12.273 12.273 0 0 0-5.493-.771c-1.85.145-3.647.68-5.275 1.568-2.735 1.517-4.73 4.033-4.892 7.237a.982.982 0 0 1-.054.282v10.395h-.258Z" fill="#9ca4b4" fill-rule="evenodd" data-name="headphone-headset-icon"/></svg>