<svg xmlns="http://www.w3.org/2000/svg" width="34.836" height="38.265" viewBox="30.5 16.405 34.836 38.265"><g data-name="Group 36"><path d="M48.172 51.771V39.782a2.908 2.908 0 0 1 2.899-2.899h11.366a2.908 2.908 0 0 1 2.9 2.9V51.77a2.908 2.908 0 0 1-2.9 2.9H51.071a2.908 2.908 0 0 1-2.9-2.9Zm.853-31.794 6.1 5.714h-6.1v-5.714ZM36.952 38.01a.66.66 0 0 0-.623.688.648.648 0 0 0 .623.689h7.654V38.01h-7.654Zm0 4.93a.66.66 0 0 0-.623.688.648.648 0 0 0 .623.688h7.654V42.94h-7.654Zm0-14.792a.66.66 0 0 0-.623.688.65.65 0 0 0 .623.689h7.078a.66.66 0 0 0 .623-.689.654.654 0 0 0-.623-.688h-7.078Zm0-4.93a.66.66 0 0 0-.623.689.648.648 0 0 0 .623.688h3.893a.66.66 0 0 0 .622-.688.65.65 0 0 0-.622-.688h-3.893Zm0 9.863a.66.66 0 0 0-.623.688.654.654 0 0 0 .623.688h11.97a.663.663 0 0 0 .623-.688.65.65 0 0 0-.623-.688h-11.97Zm21.574-6.57c0-.455-.301-.854-.738-.978l-8.996-8.754a1 1 0 0 0-.782-.374H32.328A1.825 1.825 0 0 0 30.5 18.23v31.262c0 .485.192.95.536 1.292.344.34.808.532 1.292.532h12.306v-2.04H32.54V18.449h14.445v8.258c0 .566.46 1.025 1.025 1.025h8.47v6.68h2.046v-7.9Zm-4.397 17.818 1.485 1.395 3.535-3.594c.311-.311.514-.573.903-.174l1.245 1.289c.415.408.393.648 0 1.028l-4.95 4.904c-.823.807-.683.856-1.514.025l-2.803-2.803a.364.364 0 0 1 .034-.566l1.464-1.517c.221-.227.395-.212.623 0Z" fill="#009ef7" fill-rule="evenodd" data-name="right-file-icon"/></g></svg>