<svg xmlns="http://www.w3.org/2000/svg" width="21.634" height="18.553" viewBox="40.771 345.379 21.634 18.553"><g data-name="internet-access-icon"><path d="M53.591 360.624c-.674.815-1.491 1.623-2.445 2.424.206-.028.412-.061.612-.1a7.909 7.909 0 0 0 1.592-.495c.26-.112.514-.234.757-.366l.02.056c.093.266.216.486.362.663a9.86 9.86 0 0 1-.824.397 8.915 8.915 0 0 1-1.753.546c-.6.124-1.224.183-1.865.183s-1.257-.061-1.865-.183a8.59 8.59 0 0 1-1.753-.544 10.054 10.054 0 0 1-1.582-.857 8.93 8.93 0 0 1-1.37-1.124 8.476 8.476 0 0 1-1.123-1.37 9.568 9.568 0 0 1-.857-1.58 8.915 8.915 0 0 1-.546-1.754 9.66 9.66 0 0 1 .003-3.728 8.705 8.705 0 0 1 .545-1.754c.239-.561.528-1.084.857-1.58a8.93 8.93 0 0 1 1.123-1.37 8.476 8.476 0 0 1 1.37-1.124 9.568 9.568 0 0 1 1.581-.857 8.915 8.915 0 0 1 1.754-.546c.6-.12 1.224-.182 1.865-.182.64 0 1.257.062 1.864.184a8.59 8.59 0 0 1 1.754.544c.556.24 1.085.528 1.581.857.495.328.951.706 1.37 1.123.423.418.796.874 1.123 1.37.335.495.618 1.025.858 1.581.245.567.422 1.152.546 1.754l.02.106-.899-.317a7.692 7.692 0 0 0-.412-1.219 9.159 9.159 0 0 0-.467-.94h-2.72c.213.365.4.727.56 1.09l-1.092-.384c-.128-.234-.267-.47-.419-.706h-1.59a1.303 1.303 0 0 0-.767 0h-.905v3.828h.892l.286.812h-1.178v3.828h2.526l.286.811h-2.812v2.863c1.146-.94 2.086-1.89 2.819-2.842l.318.902Zm6.953 1.095c-.135.122-.345.123-.468 0l-2.461-2.447-1.168 2.322c-.352.7-.979 1.018-1.275.18l-3.54-10.056c-.073-.206.014-.289.218-.216l10.054 3.539c.838.295.52.922-.18 1.274l-2.322 1.168 2.447 2.46a.346.346 0 0 1 0 .468l-1.305 1.308Zm-11.587 1.33c-1.313-1.103-2.365-2.216-3.145-3.344h-2.565c.245.334.518.646.812.94.383.384.795.724 1.246 1.025.446.3.93.562 1.453.785.007.004.012.004.017.009a8.104 8.104 0 0 0 2.187.584h-.005Zm-6.244-4.158h2.583c-.718-1.257-1.107-2.537-1.151-3.827h-2.55c.023.445.073.873.157 1.295.111.552.273 1.08.495 1.592.139.328.294.64.466.94Zm-1.118-4.64h2.566c.095-1.27.517-2.543 1.27-3.829h-2.718a8.813 8.813 0 0 0-.466.94c-.005.006-.005.011-.01.016a8.104 8.104 0 0 0-.485 1.574c-.084.425-.14.853-.157 1.298Zm1.647-4.642h2.71c.774-1.113 1.792-2.231 3.061-3.356a7.909 7.909 0 0 0-2.259.6 8.971 8.971 0 0 0-1.452.785c-.451.302-.863.64-1.247 1.025a8.223 8.223 0 0 0-.812.94v.006h-.001Zm7.842-3.356c1.275 1.123 2.293 2.243 3.06 3.356h2.71a8.075 8.075 0 0 0-.812-.94 8.177 8.177 0 0 0-1.246-1.025 8.675 8.675 0 0 0-1.453-.786c-.005-.005-.01-.005-.016-.01a8.104 8.104 0 0 0-2.241-.59v-.005h-.002Zm-.63.528v2.828h2.694c-.706-.935-1.603-1.875-2.694-2.828Zm-.812 15.783v-2.86h-2.833c.729.957 1.676 1.915 2.833 2.86Zm0-3.673v-3.83h-4.685c.049 1.286.484 2.56 1.285 3.829h3.4v.001Zm0-4.64v-3.829h-3.26c-.836 1.296-1.304 2.57-1.41 3.828h4.67Zm0-4.642v-2.828c-1.09.95-1.986 1.893-2.694 2.828h2.694Z" fill="#fff" fill-rule="evenodd" data-name="Path 16"/></g></svg>