<svg xmlns="http://www.w3.org/2000/svg" width="51.179" height="43.89" viewBox="13.242 15.182 51.179 43.89"><g data-name="internet-access-icon"><path d="M43.57 51.246c-1.595 1.928-3.528 3.84-5.785 5.736.487-.067.974-.146 1.45-.238A18.71 18.71 0 0 0 43 55.574a22.23 22.23 0 0 0 1.79-.867l.046.134c.221.628.513 1.15.859 1.566-.634.341-1.283.658-1.95.941a21.09 21.09 0 0 1-4.149 1.291c-1.42.292-2.894.434-4.41.434-1.517 0-2.975-.146-4.412-.434a20.324 20.324 0 0 1-4.094-1.262.124.124 0 0 1-.054-.025 23.785 23.785 0 0 1-3.741-2.028 21.125 21.125 0 0 1-3.24-2.658c-1-.987-1.883-2.066-2.658-3.24a22.635 22.635 0 0 1-2.029-3.74 21.09 21.09 0 0 1-1.29-4.15 22.85 22.85 0 0 1-.426-4.407c0-1.512.146-2.974.433-4.41.275-1.409.7-2.767 1.263-4.095 0-.013.012-.038.025-.054a23.242 23.242 0 0 1 2.028-3.74c.775-1.171 1.67-2.25 2.658-3.242.987-1 2.066-1.882 3.24-2.657a22.635 22.635 0 0 1 3.74-2.029 21.09 21.09 0 0 1 4.15-1.29 22.537 22.537 0 0 1 4.41-.43c1.517 0 2.975.146 4.412.433 1.408.275 2.765.696 4.094 1.262.013 0 .038.013.054.025a23.785 23.785 0 0 1 3.74 2.029c1.171.775 2.25 1.67 3.241 2.657 1 .988 1.883 2.066 2.658 3.241a22.635 22.635 0 0 1 2.028 3.74 21.09 21.09 0 0 1 1.292 4.15l.05.25-2.129-.75a18.197 18.197 0 0 0-.974-2.883c-.33-.775-.7-1.512-1.104-2.224h-6.436c.504.862.946 1.72 1.325 2.578l-2.583-.908a28.305 28.305 0 0 0-.991-1.67h-3.761a3.084 3.084 0 0 0-1.816 0h-2.141v9.055h2.111l.675 1.92h-2.786v9.056h5.977l.675 1.92h-6.652v6.773c2.711-2.224 4.935-4.474 6.668-6.723l.754 2.133Zm16.45 2.59c-.322.288-.817.292-1.109 0l-5.823-5.79-2.762 5.495c-.833 1.658-2.316 2.407-3.015.425l-8.377-23.789c-.17-.487.033-.683.517-.512l23.784 8.372c1.983.7 1.229 2.183-.425 3.016l-5.494 2.762 5.79 5.819c.287.291.287.791 0 1.108l-3.087 3.095Zm-27.413 3.146c-3.107-2.608-5.594-5.24-7.44-7.91H19.1a19.104 19.104 0 0 0 1.92 2.224 19.344 19.344 0 0 0 2.949 2.424c1.054.712 2.2 1.329 3.436 1.858.017.008.03.008.042.02 1.2.5 2.437.896 3.724 1.146.475.092.962.17 1.45.238h-.013Zm-14.77-9.835h6.11c-1.7-2.974-2.62-6.002-2.724-9.055h-6.031c.054 1.053.17 2.066.37 3.065a18.71 18.71 0 0 0 1.17 3.766c.33.775.696 1.512 1.105 2.224Zm-2.645-10.98h6.069c.224-3.003 1.224-6.015 3.003-9.055h-6.427c-.409.712-.775 1.45-1.104 2.224-.013.013-.013.025-.025.038-.5 1.2-.896 2.436-1.146 3.723a19.084 19.084 0 0 0-.37 3.07Zm3.894-10.98h6.41c1.833-2.632 4.241-5.277 7.244-7.939-.541.067-1.066.146-1.578.25a18.71 18.71 0 0 0-3.766 1.17 21.223 21.223 0 0 0-3.436 1.858 19.101 19.101 0 0 0-2.95 2.425c-.695.7-1.34 1.432-1.92 2.224v.012h-.004Zm18.553-7.939c3.015 2.658 5.423 5.307 7.24 7.94h6.41a19.104 19.104 0 0 0-1.92-2.225 19.344 19.344 0 0 0-2.95-2.424 20.522 20.522 0 0 0-3.436-1.858c-.013-.012-.025-.012-.038-.025-1.2-.5-2.436-.896-3.723-1.145a23.005 23.005 0 0 0-1.58-.25v-.013h-.003Zm-1.491 1.25v6.69h6.373c-1.67-2.212-3.79-4.437-6.373-6.69Zm-1.92 37.338v-6.769h-6.703c1.725 2.266 3.966 4.532 6.702 6.769Zm0-8.689v-9.06H23.142c.117 3.041 1.146 6.057 3.041 9.056h8.043v.004Zm0-10.98v-9.055h-7.715c-1.974 3.065-3.082 6.081-3.332 9.055h11.046Zm0-10.98v-6.69c-2.579 2.25-4.7 4.479-6.374 6.69h6.373Z" fill="#009ef7" fill-rule="evenodd" data-name="Path 16"/></g></svg>