<svg xmlns="http://www.w3.org/2000/svg" width="39.528" height="42.676" viewBox="176.736 560.862 39.528 42.676"><path d="M203.013 570.241a12.304 12.304 0 0 1 2.981 2.456 11.304 11.304 0 0 1 2.008 3.22c.27.668.486 1.357.642 2.06.356 1.6.384 3.253.084 4.864a13.322 13.322 0 0 1-.75 2.535l-.039.087c-.694 1.737-1.938 3.418-3.126 5.079-.605.84-1.206 1.67-1.71 2.477-.322.51-.9.802-1.503.757l-9.56 1.42a1.633 1.633 0 0 1-1.81-1.184 13.496 13.496 0 0 0-.88-2.015 8.413 8.413 0 0 0-1.041-1.556 35.976 35.976 0 0 1-1.497-1.789 14.094 14.094 0 0 1-1.439-2.404 14.309 14.309 0 0 1-.972-2.779 12.363 12.363 0 0 1-.33-2.925 12.43 12.43 0 0 1 .406-3.032 14.5 14.5 0 0 1 1.185-3.064l.07-.125a12.193 12.193 0 0 1 2.47-3.009c.971-.85 2.079-1.532 3.275-2.018l.1-.038a12.207 12.207 0 0 1 2.78-.74 13.42 13.42 0 0 1 5.947.525c.945.296 1.854.698 2.71 1.198Zm-1.347 30.344a6.03 6.03 0 0 1-2.175 2.181 5.683 5.683 0 0 1-2.498.761 5.162 5.162 0 0 1-2.567-.5 5.235 5.235 0 0 1-1.521-1.133l8.76-1.31Zm.833-4.902V596.454c.026.376.026.754 0 1.13l-.173.826-10.616 1.577-.184-.424-.414-1.695v-.493l11.36-1.692Zm-6.253-33.526c.021-.73.627-1.309 1.359-1.295h.09a1.34 1.34 0 0 1 1.226 1.348.441.441 0 0 1 0 .07l-.073 2.844c.002.03.002.06 0 .09a1.324 1.324 0 0 1-1.34 1.223h-.094a1.31 1.31 0 0 1-.855-.406 1.334 1.334 0 0 1-.368-.938.441.441 0 0 1 0-.07l.07-2.855Zm-14.645 4.992a1.355 1.355 0 0 1-.424-.927 1.33 1.33 0 0 1 1.282-1.39c.352-.015.695.11.955.348l2.133 1.99c.537.501.57 1.342.073 1.883-.243.257-.577.41-.93.424-.352.014-.694-.11-.953-.348l-2.136-1.98Zm-3.474 14.667a1.34 1.34 0 0 1-1.39-1.293 1.313 1.313 0 0 1 .348-.955c.242-.258.577-.408.93-.417l2.912-.097a1.33 1.33 0 0 1 1.39 1.289v.07a1.34 1.34 0 0 1-.348.885 1.324 1.324 0 0 1-.945.407h-.052l-2.876.097Zm36.683-4.13h.046a1.334 1.334 0 0 1 1.407 1.194v.042a1.334 1.334 0 0 1-1.195 1.39l-2.898.35a1.334 1.334 0 0 1-1.462-1.188 1.334 1.334 0 0 1 1.191-1.462c.966-.104 1.939-.215 2.908-.31Zm-5.738-11.596a1.324 1.324 0 0 1 1.844-.365c.293.196.494.502.56.848.067.346-.004.705-.198 1l-1.623 2.432a1.335 1.335 0 0 1-2.209-1.5l1.626-2.433Zm-11.054 13.846h2.046a.535.535 0 0 1 .445.834l-4.864 8.313a.531.531 0 0 1-.733.18.538.538 0 0 1-.25-.566l.72-5.1-2.432.043a.531.531 0 0 1-.542-.525.518.518 0 0 1 .073-.281l4.79-8.31a.538.538 0 0 1 .733-.187c.193.104.3.317.271.535l-.243 5.064Z" fill="#009ef7" fill-rule="evenodd" data-name="lamp-icon"/></svg>