<svg xmlns="http://www.w3.org/2000/svg" width="12.186" height="15.865" viewBox="41.883 345.451 12.186 15.865"><g data-name="lock-line-icon"><path d="M43.01 351.352h.373v-1.127c0-1.309.515-2.5 1.344-3.366.833-.869 1.983-1.408 3.249-1.408s2.416.54 3.249 1.408a4.857 4.857 0 0 1 1.344 3.366v1.127h.374c.31 0 .591.127.795.33.204.205.33.486.33.796v7.712c0 .31-.126.592-.33.796-.204.204-.485.33-.795.33h-9.934c-.31 0-.591-.126-.795-.33a1.122 1.122 0 0 1-.33-.796v-7.712a1.123 1.123 0 0 1 1.126-1.126Zm4.554 5.37-.54 1.418h1.905l-.501-1.437a.987.987 0 1 0-.864.02Zm-3.389-5.37h7.602v-1.127c0-1.099-.43-2.096-1.122-2.818a3.706 3.706 0 0 0-2.679-1.164c-1.043 0-1.991.446-2.68 1.164a4.064 4.064 0 0 0-1.12 2.818v1.127Zm8.768.793h-9.934a.332.332 0 0 0-.235.098.333.333 0 0 0-.098.235v7.712c0 .092.037.175.098.236.06.06.144.098.235.098h9.934a.332.332 0 0 0 .235-.098.332.332 0 0 0 .099-.236v-7.712a.333.333 0 0 0-.099-.235.333.333 0 0 0-.235-.098Z" fill="#fff" fill-rule="evenodd" data-name="Path 53"/></g></svg>