<svg width="44" height="45" viewBox="0 0 44 45" fill="none" xmlns="http://www.w3.org/2000/svg">
<path d="M28.039 0.576004H15C6.71573 0.576004 0 7.29173 0 15.576V29.7C0 37.9843 6.71573 44.7 15 44.7H28.039C36.3233 44.7 43.039 37.9843 43.039 29.7V15.576C43.039 7.29173 36.3233 0.576004 28.039 0.576004Z" fill="#13263C"/>
<path d="M14.618 18.38H15.155V16.76C15.1508 14.9591 15.8431 13.2263 17.087 11.924C17.6856 11.2857 18.4087 10.7769 19.2117 10.4291C20.0147 10.0812 20.8804 9.90179 21.7555 9.90179C22.6306 9.90179 23.4963 10.0812 24.2993 10.4291C25.1023 10.7769 25.8254 11.2857 26.424 11.924C27.6675 13.2265 28.3593 14.9592 28.355 16.76V18.38H28.892C29.3211 18.3811 29.7324 18.5521 30.0356 18.8558C30.3389 19.1594 30.5095 19.5709 30.51 20V31.079C30.5097 31.5083 30.3393 31.92 30.036 32.2239C29.7327 32.5277 29.3213 32.6989 28.892 32.7H14.618C14.1889 32.6989 13.7776 32.5279 13.4744 32.2242C13.1711 31.9206 13.0005 31.5091 13 31.08V20C13.0005 19.5709 13.1711 19.1594 13.4744 18.8558C13.7776 18.5521 14.1889 18.3811 14.618 18.38ZM21.163 26.1L20.386 28.137H23.125L22.4 26.069C22.6854 25.9221 22.9126 25.6828 23.0445 25.3902C23.1763 25.0975 23.2051 24.7688 23.126 24.4577C23.0469 24.1466 22.8647 23.8715 22.6091 23.6773C22.3535 23.4832 22.0396 23.3814 21.7187 23.3886C21.3978 23.3959 21.0888 23.5117 20.8422 23.7172C20.5957 23.9227 20.426 24.2057 20.3611 24.5201C20.2961 24.8344 20.3397 25.1615 20.4846 25.4479C20.6295 25.7343 20.8672 25.9631 21.159 26.097L21.163 26.1ZM16.294 18.38H27.217V16.76C27.2224 15.2529 26.6448 13.802 25.605 12.711C25.1121 12.1833 24.516 11.7625 23.8537 11.4749C23.1914 11.1872 22.4771 11.0387 21.755 11.0387C21.0329 11.0387 20.3186 11.1872 19.6563 11.4749C18.994 11.7625 18.3979 12.1833 17.905 12.711C16.8657 13.8023 16.2885 15.253 16.294 16.76V18.38ZM28.894 19.519H14.618C14.4909 19.5198 14.3693 19.5706 14.2795 19.6605C14.1896 19.7503 14.1388 19.8719 14.138 19.999V31.08C14.139 31.2069 14.19 31.3283 14.2798 31.4179C14.3696 31.5075 14.4911 31.5582 14.618 31.559H28.892C29.0189 31.5582 29.1404 31.5075 29.2302 31.4179C29.32 31.3283 29.371 31.2069 29.372 31.08V20C29.3712 19.8729 29.3204 19.7513 29.2305 19.6615C29.1407 19.5716 29.0191 19.5208 28.892 19.52L28.894 19.519Z" fill="white"/>
</svg>
