<svg xmlns="http://www.w3.org/2000/svg" width="15.394" height="16.646" viewBox="48.682 420.198 15.394 16.646"><path d="M49.778 430.29H62.98c.603 0 1.097.495 1.097 1.097v4.36c0 .601-.495 1.097-1.097 1.097h-13.2a1.101 1.101 0 0 1-1.097-1.097v-4.36a1.1 1.1 0 0 1 1.096-1.097Zm3.368-6.624h.358v-.487c0-.815.32-1.559.838-2.098a2.816 2.816 0 0 1 2.037-.883c.794 0 1.515.338 2.037.883.518.54.839 1.282.839 2.098v.487h.357a.47.47 0 0 1 .469.47v4.64a.47.47 0 0 1-.47.468h-6.465a.47.47 0 0 1-.469-.469v-4.64c0-.257.21-.469.47-.469Zm2.861 3-.488 1.28h1.72l-.453-1.298a.89.89 0 0 0-.407-1.683.89.89 0 0 0-.372 1.702Zm-1.615-3h3.974v-.487a2.14 2.14 0 0 0-.59-1.485 1.935 1.935 0 0 0-1.397-.607c-.544 0-1.039.233-1.398.607a2.14 2.14 0 0 0-.59 1.485v.487Zm5.826 8.758a.362.362 0 1 1 .724 0v.468l.388-.26a.36.36 0 0 1 .401.6l-.5.334.5.333a.361.361 0 0 1-.398.602l-.391-.26v.47a.362.362 0 1 1-.724 0v-.468l-.387.26a.361.361 0 0 1-.402-.6l.5-.335-.5-.333a.36.36 0 0 1 .398-.602l.391.26v-.47Zm-8.402 0a.362.362 0 1 1 .723 0v.468l.388-.26a.361.361 0 0 1 .402.6l-.5.334.5.333a.361.361 0 0 1-.399.602l-.39-.26v.47a.362.362 0 0 1-.724 0v-.468l-.388.26a.361.361 0 0 1-.401-.6l.5-.335-.5-.333a.361.361 0 0 1 .398-.602l.391.26v-.47Zm4.201 0a.362.362 0 0 1 .724 0v.468l.387-.26a.361.361 0 0 1 .402.6l-.5.334.5.333a.36.36 0 1 1-.398.602l-.391-.26v.47a.362.362 0 0 1-.724 0v-.468l-.388.26a.361.361 0 0 1-.401-.6l.5-.335-.5-.333a.361.361 0 0 1 .398-.602l.391.26v-.47Z" fill="#fff" fill-rule="evenodd" data-name="passcode-icon"/></svg>