<svg xmlns="http://www.w3.org/2000/svg" width="30.671" height="26.657"><path d="M30.65 1.089A.899.899 0 0 0 29.45.06L.575 11.083a.899.899 0 0 0 0 1.678l8.112 3.132v9.867a.899.899 0 0 0 1.7.405l3.356-6.663 8.192 6.076a.899.899 0 0 0 1.394-.46C30.967.062 30.636 1.152 30.65 1.088Zm-7.127 3.158L9.456 14.265l-6.052-2.338 20.119-7.68Zm-13.04 11.49 12.26-8.733c-10.55 11.13-9.999 10.545-10.048 10.607-.069.092.12-.266-2.216 4.37l.003-6.244Zm11.493 7.646-7.209-5.352 13.03-13.747-5.82 19.099Z" fill="#9ca4b4" fill-rule="evenodd" data-name="Path 168"/></svg>