<svg xmlns="http://www.w3.org/2000/svg" width="34.178" height="32.143" viewBox="19.595 21.056 34.178 32.143"><g data-name="phone-call-icon"><path d="M29.009 34.267c1.149 1.958 2.473 3.838 4.192 5.552 1.725 1.725 3.87 3.295 6.646 4.635.206.095.4.095.576.03.264-.095.534-.303.798-.553.206-.194.462-.505.73-.844 1.067-1.327 2.389-2.976 4.255-2.15.042.018.073.04.114.055l6.226 3.384c.02.01.042.028.059.039.82.534 1.16 1.357 1.168 2.29 0 .95-.37 2.017-.912 2.918-.718 1.191-1.775 1.98-2.994 2.5-1.16.505-2.45.776-3.691.95-1.948.27-3.772.097-5.64-.445-1.824-.533-3.663-1.414-5.671-2.587l-.148-.09c-.92-.543-1.917-1.124-2.893-1.81-3.572-2.55-7.213-6.234-9.586-10.288-1.99-3.402-3.074-7.075-2.482-10.575.328-1.919 1.2-3.665 2.718-4.816 1.324-1.01 3.107-1.562 5.416-1.367.265.018.501.163.626.378l3.992 6.378c.585.716.657 1.425.337 2.135-.264.581-.798 1.118-1.527 1.617-.214.174-.47.35-.74.534-.893.613-1.909 1.32-1.56 2.15l-.01-.02Z" fill="#009ef7" fill-rule="evenodd" data-name="Path 19"/></g></svg>