<svg xmlns="http://www.w3.org/2000/svg" width="14.228" height="13.38" viewBox="48.157 347.195 14.228 13.38"><g data-name="phone-call-icon"><path d="M52.076 352.694c.478.816 1.03 1.598 1.745 2.312.718.718 1.61 1.371 2.766 1.93.086.039.167.039.24.011.11-.039.222-.125.332-.23.086-.08.193-.21.304-.35.444-.553.995-1.24 1.772-.896.017.008.03.016.047.023l2.592 1.409c.008.004.017.012.024.016.342.222.483.565.486.953 0 .395-.154.84-.38 1.215-.298.496-.738.824-1.245 1.04-.483.21-1.02.324-1.537.396-.81.113-1.57.04-2.347-.185-.76-.222-1.526-.589-2.362-1.077l-.061-.037c-.383-.227-.798-.469-1.204-.754-1.487-1.062-3.003-2.595-3.991-4.283-.828-1.416-1.28-2.945-1.033-4.402.137-.799.5-1.525 1.131-2.005.552-.42 1.294-.65 2.255-.569.11.008.209.068.26.158l1.662 2.655c.244.298.274.593.14.889-.11.242-.332.465-.635.673-.09.072-.196.145-.308.222-.372.255-.795.55-.65.895l-.003-.009Z" fill="#fff" fill-rule="evenodd" data-name="Path 19"/></g></svg>