<svg xmlns="http://www.w3.org/2000/svg" width="36.468" height="34" viewBox="67 565.199 36.468 34"><g data-name="television-icon"><path d="M67.991 574.373h13.716l-2.37-4.107c.228-1.143.892-1.529 1.996-1.155l3.036 5.262h1.2l5.403-9.07c1.042-.266 1.816-.068 2 1.155l-4.712 7.915h14.217c.546 0 .991.445.991.99v22.845a.995.995 0 0 1-.99.991H67.99a.993.993 0 0 1-.991-.99v-22.845c0-.543.445-.991.991-.991Zm30.284 21.114a1.292 1.292 0 0 1 0 2.582 1.292 1.292 0 0 1 0-2.582Zm-28.595.282h9.695c.148 0 .27.121.27.273v1.469a.274.274 0 0 1-.27.273H69.68a.272.272 0 0 1-.27-.273v-1.47c0-.148.121-.272.27-.272Zm.525-19.126h30.053c.439 0 .798.356.798.79v15.98c0 .433-.36.789-.798.789H70.205a.797.797 0 0 1-.798-.79v-15.98a.799.799 0 0 1 .798-.79Z" fill="#009ef7" fill-rule="evenodd" data-name="Path 64"/></g></svg>