<svg xmlns="http://www.w3.org/2000/svg" width="23.646" height="24.334" viewBox="12.405 0 23.646 28.334"><g data-name="user"><path d="M24.05 13.65a6.606 6.606 0 0 0 4.826-2 6.606 6.606 0 0 0 1.996-4.826 6.606 6.606 0 0 0-2-4.825 6.823 6.823 0 0 0-9.65 0 6.606 6.606 0 0 0-2 4.825 6.606 6.606 0 0 0 2 4.826 6.606 6.606 0 0 0 4.829 2ZM20.4 3.172a5.162 5.162 0 0 1 7.302 0 4.934 4.934 0 0 1 1.513 3.65 4.933 4.933 0 0 1-1.513 3.658 5.162 5.162 0 0 1-7.302 0 4.933 4.933 0 0 1-1.514-3.657A4.933 4.933 0 0 1 20.4 3.173Zm0 0" fill="#9ca4b4" fill-rule="evenodd" data-name="Path 154"/><path d="M35.992 21.788c-.044-.6-.121-1.199-.23-1.79-.107-.61-.254-1.211-.44-1.801a8.89 8.89 0 0 0-.74-1.679 6.328 6.328 0 0 0-1.115-1.454 4.92 4.92 0 0 0-1.604-1.008 5.545 5.545 0 0 0-2.046-.37 2.077 2.077 0 0 0-1.11.472c-.332.217-.721.472-1.154.745a6.62 6.62 0 0 1-1.495.659 5.805 5.805 0 0 1-3.657 0 6.607 6.607 0 0 1-1.493-.659c-.43-.274-.819-.525-1.156-.745a2.075 2.075 0 0 0-1.109-.472 5.533 5.533 0 0 0-2.047.37c-.594.23-1.139.571-1.603 1.008a6.33 6.33 0 0 0-1.116 1.454 8.911 8.911 0 0 0-.74 1.679 14.14 14.14 0 0 0-.44 1.8c-.108.592-.185 1.19-.23 1.79a23.422 23.422 0 0 0-.057 1.671 4.706 4.706 0 0 0 1.398 3.56 5.03 5.03 0 0 0 3.6 1.312h13.64a5.03 5.03 0 0 0 3.6-1.313 4.703 4.703 0 0 0 1.398-3.56c0-.57-.018-1.134-.057-1.674Zm-2.485 4.03a3.387 3.387 0 0 1-2.456.856H17.408a3.387 3.387 0 0 1-2.456-.855 3.067 3.067 0 0 1-.881-2.36c0-.53.017-1.054.053-1.558.04-.54.11-1.08.207-1.612.095-.537.224-1.067.387-1.587.154-.475.356-.932.603-1.365.222-.396.5-.758.826-1.075a3.263 3.263 0 0 1 1.062-.663 3.82 3.82 0 0 1 1.308-.252c.058.03.161.09.329.2.34.222.735.471 1.17.753a8.227 8.227 0 0 0 1.877.839c1.52.501 3.16.501 4.678 0 .659-.2 1.29-.482 1.878-.839.445-.284.826-.53 1.17-.754.167-.11.27-.168.329-.199.447.007.89.092 1.308.252.393.15.754.376 1.062.663.325.317.604.679.825 1.075.248.433.45.89.603 1.365.164.52.293 1.05.387 1.587.098.533.167 1.071.208 1.612.035.501.053 1.025.053 1.558a3.067 3.067 0 0 1-.883 2.36Zm0 0" fill="#9ca4b4" fill-rule="evenodd" data-name="Path 155"/></g></svg>