<svg width="21" height="25" viewBox="0 0 21 25" fill="none" xmlns="http://www.w3.org/2000/svg">
<path d="M9.87189 12.479C10.6336 12.4888 11.3892 12.343 12.0926 12.0507C12.7961 11.7584 13.4325 11.3257 13.9629 10.779C14.5075 10.2485 14.9384 9.61257 15.2293 8.91009C15.5202 8.20761 15.665 7.45325 15.6549 6.69299C15.6638 5.93232 15.5177 5.1778 15.2254 4.47547C14.9332 3.77314 14.5009 3.13772 13.9549 2.60799C13.4178 2.07072 12.7801 1.64452 12.0782 1.35374C11.3764 1.06296 10.6241 0.9133 9.86439 0.9133C9.10469 0.9133 8.35242 1.06296 7.65056 1.35374C6.94871 1.64452 6.31101 2.07072 5.77389 2.60799C5.22822 3.13873 4.79647 3.77515 4.50504 4.47837C4.21361 5.18159 4.06861 5.93684 4.07889 6.69799C4.06847 7.4593 4.21341 8.21475 4.50484 8.91815C4.79628 9.62155 5.22809 10.2581 5.77389 10.789C6.30599 11.3347 6.94391 11.7661 7.64856 12.0567C8.35321 12.3473 9.10977 12.491 9.87189 12.479ZM6.77189 3.59799C7.17827 3.19143 7.66076 2.86892 8.19181 2.64888C8.72286 2.42884 9.29206 2.31559 9.86689 2.31559C10.4417 2.31559 11.0109 2.42884 11.542 2.64888C12.073 2.86892 12.5555 3.19143 12.9619 3.59799C13.3781 3.99818 13.707 4.4802 13.9278 5.01372C14.1486 5.54724 14.2566 6.1207 14.2449 6.69799C14.2566 7.27529 14.1487 7.84876 13.9279 8.38229C13.7071 8.91582 13.3782 9.39784 12.9619 9.79799C12.5555 10.2045 12.073 10.5271 11.542 10.7471C11.0109 10.9671 10.4417 11.0804 9.86689 11.0804C9.29206 11.0804 8.72286 10.9671 8.19181 10.7471C7.66076 10.5271 7.17827 10.2045 6.77189 9.79799C6.35561 9.39784 6.0267 8.91582 5.80589 8.38229C5.58508 7.84876 5.47715 7.27529 5.48889 6.69799C5.47779 6.12033 5.58651 5.54663 5.8082 5.01308C6.02988 4.47953 6.35971 3.99771 6.77689 3.59799H6.77189Z" fill="#9CA6B8"/>
<path d="M19.9949 19.378C19.957 18.8689 19.892 18.3621 19.7999 17.86C19.7091 17.3437 19.5845 16.8339 19.4269 16.334C19.2675 15.8393 19.0574 15.3624 18.7999 14.911C18.5461 14.4562 18.2274 14.0409 17.8539 13.678C17.4604 13.308 16.9989 13.018 16.4949 12.824C15.9415 12.6108 15.3528 12.5043 14.7599 12.51C14.4139 12.5475 14.0868 12.6867 13.8199 12.91C13.5379 13.094 13.2079 13.31 12.8409 13.542C12.4432 13.7796 12.0176 13.967 11.5739 14.1C10.5675 14.434 9.48023 14.434 8.47388 14.1C8.03044 13.967 7.6052 13.7796 7.20788 13.542C6.84388 13.309 6.51388 13.097 6.22788 12.91C5.96102 12.6866 5.63389 12.5474 5.28788 12.51C4.6949 12.504 4.10616 12.6106 3.55288 12.824C3.04882 13.0179 2.58726 13.3079 2.19388 13.678C1.82039 14.0409 1.50171 14.4562 1.24788 14.911C0.990488 15.3625 0.780375 15.8393 0.620883 16.334C0.463317 16.8339 0.338716 17.3437 0.247883 17.86C0.153948 18.362 0.0871845 18.8688 0.0478834 19.378C0.0198834 19.837 0.00388336 20.314 0.00388336 20.794C-0.0207475 21.3518 0.0720009 21.9086 0.276128 22.4283C0.480255 22.948 0.791213 23.419 1.18888 23.811C2.0195 24.5702 3.11654 24.9702 4.24088 24.924H15.8039C16.9282 24.9702 18.0253 24.5702 18.8559 23.811C19.2538 23.419 19.5649 22.9478 19.769 22.4279C19.9732 21.908 20.0658 21.351 20.0409 20.793C20.0409 20.309 20.0249 19.832 19.9919 19.374L19.9949 19.378ZM17.8879 22.794C17.6058 23.0462 17.2767 23.2402 16.9194 23.3648C16.5621 23.4894 16.1836 23.5421 15.8059 23.52H4.24088C3.86319 23.5423 3.48482 23.4897 3.12752 23.3653C2.77022 23.2409 2.44103 23.0471 2.15888 22.795C1.89991 22.5335 1.69941 22.22 1.57063 21.8752C1.44186 21.5304 1.38775 21.1622 1.41188 20.795C1.41188 20.345 1.42688 19.901 1.45688 19.474C1.49096 19.0155 1.54971 18.5592 1.63288 18.107C1.71271 17.652 1.82228 17.2027 1.96088 16.762C2.09099 16.3598 2.26223 15.9721 2.47188 15.605C2.65991 15.269 2.8957 14.9622 3.17188 14.694C3.4328 14.4503 3.73843 14.2595 4.07188 14.132C4.42616 13.9962 4.80153 13.9238 5.18088 13.918C5.22988 13.944 5.31788 13.994 5.45988 14.087C5.74888 14.276 6.08288 14.487 6.45188 14.726C6.95041 15.0286 7.48491 15.2674 8.04288 15.437C9.33073 15.862 10.721 15.862 12.0089 15.437C12.5672 15.2674 13.102 15.0286 13.6009 14.726C13.9779 14.485 14.3009 14.276 14.5919 14.087C14.7339 13.994 14.8219 13.944 14.8709 13.918C15.2502 13.9239 15.6256 13.9963 15.9799 14.132C16.3133 14.2596 16.6189 14.4504 16.8799 14.694C17.1562 14.9621 17.392 15.2689 17.5799 15.605C17.7897 15.972 17.9609 16.3597 18.0909 16.762C18.2296 17.2026 18.3391 17.6519 18.4189 18.107C18.5019 18.5592 18.5606 19.0155 18.5949 19.474C18.6249 19.899 18.6399 20.343 18.6399 20.795C18.6639 21.1623 18.6096 21.5305 18.4807 21.8753C18.3517 22.2201 18.151 22.5336 17.8919 22.795L17.8879 22.794Z" fill="#9CA6B8"/>
</svg>
