<svg xmlns="http://www.w3.org/2000/svg" width="16.054" height="19.237" viewBox="43.281 344.695 16.054 19.237"><g data-name="user"><path d="M51.188 353.962a4.485 4.485 0 0 0 3.276-1.357 4.485 4.485 0 0 0 1.355-3.277 4.485 4.485 0 0 0-1.357-3.275 4.632 4.632 0 0 0-6.552 0 4.485 4.485 0 0 0-1.358 3.275 4.485 4.485 0 0 0 1.358 3.277 4.485 4.485 0 0 0 3.278 1.357Zm-2.48-7.112a3.505 3.505 0 0 1 4.958 0 3.35 3.35 0 0 1 1.028 2.478 3.35 3.35 0 0 1-1.028 2.483 3.505 3.505 0 0 1-4.957 0 3.35 3.35 0 0 1-1.028-2.483 3.35 3.35 0 0 1 1.028-2.478Zm0 0" fill="#fff" fill-rule="evenodd" data-name="Path 154"/><path d="M59.295 359.488c-.03-.408-.082-.814-.156-1.216a9.577 9.577 0 0 0-.299-1.222 6.036 6.036 0 0 0-.502-1.14 4.297 4.297 0 0 0-.758-.987 3.34 3.34 0 0 0-1.088-.684 3.764 3.764 0 0 0-1.39-.252 1.41 1.41 0 0 0-.752.32c-.226.148-.49.32-.784.507-.319.19-.66.34-1.015.447a3.941 3.941 0 0 1-2.483 0 4.485 4.485 0 0 1-1.014-.447c-.291-.187-.556-.357-.785-.506a1.409 1.409 0 0 0-.753-.32 3.757 3.757 0 0 0-1.39.25 3.338 3.338 0 0 0-1.088.685c-.299.29-.554.623-.757.987a6.05 6.05 0 0 0-.502 1.14 9.6 9.6 0 0 0-.3 1.222c-.073.402-.125.808-.155 1.216-.027.367-.04.75-.04 1.134-.04.903.305 1.781.95 2.416a3.415 3.415 0 0 0 2.444.891h9.26c.901.038 1.78-.283 2.445-.89.644-.636.99-1.514.949-2.418 0-.388-.013-.77-.04-1.136Zm-1.687 2.736a2.3 2.3 0 0 1-1.668.581h-9.262a2.3 2.3 0 0 1-1.668-.58 2.082 2.082 0 0 1-.598-1.602c0-.36.012-.716.036-1.058.027-.368.074-.733.141-1.095.064-.365.152-.724.263-1.077.104-.323.241-.633.409-.927.15-.27.34-.515.56-.73.21-.195.454-.348.721-.45.284-.108.585-.167.889-.171.039.02.11.06.223.135.232.152.499.32.795.512.399.242.827.434 1.274.57 1.031.34 2.145.34 3.176 0a5.59 5.59 0 0 0 1.275-.57c.302-.193.56-.36.794-.512.114-.074.184-.114.223-.135.304.005.605.063.889.171.267.102.511.255.72.45.222.215.41.46.561.73.168.294.305.604.41.927.11.352.198.712.262 1.077.066.362.113.727.14 1.095.025.34.037.696.037 1.058a2.082 2.082 0 0 1-.6 1.601Zm0 0" fill="#fff" fill-rule="evenodd" data-name="Path 155"/></g></svg>