<svg width="22" height="22" viewBox="0 0 22 22" fill="none" xmlns="http://www.w3.org/2000/svg">
<path fill-rule="evenodd" clip-rule="evenodd" d="M11.32 2.31704L14.624 0.889038L16.436 3.97104L19.95 4.75804L19.603 8.31704L21.983 11.017L19.611 13.694L19.958 17.279L16.458 18.05L14.626 21.15L11.346 19.72L8.046 21.15L6.228 18.065L2.714 17.28L3.061 13.719L0.681 11.018L3.053 8.34304L2.715 4.75804L6.208 3.98904L8.04 0.889038L11.32 2.31704ZM7.172 12.079C6.95637 11.8459 6.83901 11.5385 6.84439 11.221C6.84976 10.9034 6.97745 10.6002 7.20086 10.3745C7.42426 10.1488 7.72614 10.018 8.0436 10.0093C8.36107 10.0007 8.66963 10.1148 8.905 10.328C9.318 10.704 9.917 11.254 10.333 11.628L13.541 7.68104C13.7703 7.46311 14.0747 7.34183 14.3911 7.34235C14.7074 7.34287 15.0114 7.46516 15.24 7.68384C15.4686 7.90252 15.6042 8.20081 15.6187 8.51682C15.6332 8.83283 15.5256 9.14231 15.318 9.38104L11.291 14.189C11.0705 14.4223 10.768 14.5606 10.4474 14.5748C10.1268 14.589 9.81319 14.4779 9.573 14.265C8.89 13.615 7.888 12.677 7.172 12.079Z" fill="white"/>
</svg>
