<svg xmlns="http://www.w3.org/2000/svg" width="24.435" height="20.149" viewBox="38.148 140.678 24.435 20.149"><g data-name="wallet-icon"><path d="M56.17 147.304h3.658v-.555c-.572-2.134-2.028-2.12-3.828-2.102a89.07 89.07 0 0 1-.58.006H41.74a.569.569 0 1 1 0-1.137H55.42c.404 0 .49 0 .571-.002 1.54-.016 2.884-.03 3.838.87v-.26c0-.636-.26-1.213-.68-1.633-.42-.42-.998-.68-1.633-.68H41.596c-.636 0-1.213.26-1.633.68-.42.42-.68.999-.68 1.633v13.253c0 .636.26 1.213.68 1.633.42.42.999.68 1.633.68h15.917c.637 0 1.214-.26 1.633-.68.42-.42.68-.999.68-1.633v-1.882h-3.659a4.002 4.002 0 0 1-2.834-1.177 4.002 4.002 0 0 1-1.177-2.834v-.173c0-1.103.451-2.108 1.177-2.834a4.02 4.02 0 0 1 2.836-1.173Zm4.794.022c.411.062.78.257 1.06.539.346.346.559.823.559 1.348v4.296a1.992 1.992 0 0 1-1.619 1.955v1.915a3.44 3.44 0 0 1-1.012 2.436 3.44 3.44 0 0 1-2.437 1.012H41.596a3.44 3.44 0 0 1-2.436-1.012 3.432 3.432 0 0 1-1.012-2.434v-13.255a3.44 3.44 0 0 1 1.012-2.436 3.44 3.44 0 0 1 2.436-1.012h15.917a3.44 3.44 0 0 1 2.437 1.012 3.44 3.44 0 0 1 1.012 2.436v3.2h.002Zm-5.288 2.522a1.457 1.457 0 1 1 0 2.914 1.457 1.457 0 0 1 0-2.914Z" fill="#fff" fill-rule="evenodd" data-name="Path 58"/></g></svg>