<svg xmlns="http://www.w3.org/2000/svg" width="13.5" height="9.657" viewBox="219.25 255.172 13.5 9.657"><path d="M221.529 257.578a.472.472 0 0 1 0 .944h-.663c-.775 0-1.274-.447-1.494-1.018a1.861 1.861 0 0 1-.001-1.323c.219-.567.716-1.01 1.495-1.01h10.268c.778 0 1.276.444 1.495 1.011a1.855 1.855 0 0 1 0 1.324c-.22.57-.72 1.016-1.495 1.016h-.86a.472.472 0 0 1 0-.944h.86a.63.63 0 0 0 .617-.411.905.905 0 0 0 .001-.646c-.088-.228-.293-.406-.618-.406h-1.936v5.188h-6.396v-5.188h-1.936c-.325 0-.53.177-.618.405a.901.901 0 0 0 0 .645.63.63 0 0 0 .618.413h.663Zm5.235 4.187v1.026h.7c.118.005.201.044.25.117.13.196-.048.39-.172.526-.35.385-1.144 1.083-1.317 1.286-.131.145-.319.145-.45 0-.179-.21-1.017-.948-1.35-1.324-.116-.13-.26-.307-.139-.488.049-.073.132-.112.25-.117h.7v-1.026h1.528Zm1.46-5.65h-4.418v3.121c.52 0 .945.425.945.945h2.528c0-.52.424-.945.945-.945v-3.121Zm-2.224.26a1.14 1.14 0 1 1 0 2.28 1.14 1.14 0 0 1 0-2.28Z" fill="#fff" fill-rule="evenodd" data-name="withdraw-money-icon"/></svg>